<?xml version="1.0" encoding="utf-8"?>
<!-- Generator: Adobe Illustrator 16.0.0, SVG Export Plug-In . SVG Version: 6.00 Build 0)  -->
<!DOCTYPE svg PUBLIC "-//W3C//DTD SVG 1.1//EN" "http://www.w3.org/Graphics/SVG/1.1/DTD/svg11.dtd">
<svg version="1.1" id="Layer_1" xmlns="http://www.w3.org/2000/svg" xmlns:xlink="http://www.w3.org/1999/xlink" x="0px" y="0px"
	 width="1000px" height="300px" viewBox="0 0 1000 300" enable-background="new 0 0 1000 300" xml:space="preserve">
<g>
	<g>
		<path fill="#FFFFFF" d="M229.502,137.57c0.224,6.597,0.373,12.814,0.66,19.023c0.672,14.528,1.614,29.051,2.069,43.587
			c0.468,14.937-1.414,29.572-7.633,43.349c-7.977,17.667-22.032,28.58-39.817,35.17c-16.249,6.025-33.21,8.096-50.388,8.872
			c-15.894,0.72-31.751,0.269-47.532-1.887c-13.581-1.851-26.77-5.083-39.059-11.403c-18.917-9.736-30.211-25.238-34.841-45.829
			c-2.724-12.119-2.899-24.359-2.356-36.703c0.75-17.105,1.125-34.227,1.583-51.342c0.055-2.023,0.459-2.958,2.781-2.888
			c5.818,0.17,11.644,0.147,17.464,0.005c2.142-0.05,2.623,0.695,2.616,2.708c-0.07,18.3-0.095,36.599-0.022,54.898
			c0.042,10.537,1.936,20.678,7.234,29.968c6.801,11.919,17.325,19.277,29.823,24.149c12.464,4.858,25.53,6.827,38.788,7.372
			c15.806,0.656,31.594,0.269,47.205-2.746c8.361-1.615,16.46-4.01,24.021-8.039c14.939-7.956,22.802-20.643,24.76-37.189
			c0.476-4.036,0.596-8.127,0.611-12.195c0.062-18.712,0.065-37.429-0.022-56.144c-0.012-2.206,0.576-2.838,2.784-2.785
			C216.538,137.666,222.851,137.57,229.502,137.57z"/>
		<path fill="#FFFFFF" d="M35.01,118.484c-7.425,0-14.476,0.035-21.528-0.084c-0.428-0.005-1.178-1.212-1.199-1.879
			c-0.272-8.307-0.311-16.627-0.655-24.932c-0.623-15.032-1.24-30.066-2.176-45.078C8.38,29.255,19.017,14.737,35.993,11.179
			c4.119-0.865,8.403-1.311,12.612-1.317c48.581-0.092,97.162-0.067,145.745-0.056c9.08,0.002,17.735,1.645,25.193,7.235
			c9.436,7.077,13.244,16.873,12.853,28.337c-0.82,23.924-1.869,47.841-2.827,71.761c-0.014,0.321-0.1,0.643-0.182,1.153
			c-7.212,0-14.384,0-21.894,0c0-1.123,0-2.178,0-3.232c0-18.716,0-37.434,0-56.149c0-4.562-0.809-8.96-3.042-12.975
			c-4.105-7.396-10.842-10.44-18.912-11.15c-1.404-0.124-2.825-0.118-4.239-0.118c-40.097-0.007-80.193-0.031-120.289,0.036
			c-3.132,0.004-6.36,0.268-9.377,1.054c-10.858,2.831-16.58,11.157-16.612,23.929c-0.051,18.469-0.012,36.936-0.012,55.402
			C35.01,116.073,35.01,117.058,35.01,118.484z"/>
		<path fill="#FFFFFF" d="M121.267,44.161c18.967,0,37.932,0.003,56.902-0.001c12.465-0.005,20.25,7.409,20.363,19.885
			c0.155,17.637,0.034,35.271,0.023,52.907c0,0.663-0.087,1.328-0.155,1.989c-0.35,3.483-0.942,7.027-4.603,8.511
			c-4.12,1.669-8.345,1.626-12.087-1.211c-4.933-3.742-7.047-9.158-8.33-14.924c-3.352-15.086-11.355-27.016-24.207-35.545
			c-17.667-11.728-47.464-10.883-63.04,5.609c-6.263,6.634-10.325,14.429-12.559,23.214c-1.547,6.079-3.506,11.976-7.117,17.186
			c-3.925,5.665-8.289,7.316-14.604,5.774c-3.666-0.895-5.709-3.289-6.536-6.775c-0.418-1.763-0.613-3.618-0.619-5.433
			c-0.044-16.803-0.049-33.609,0.003-50.411c0.006-2.148,0.242-4.331,0.672-6.436c1.884-9.202,8.317-14.315,17.993-14.328
			C82.668,44.142,101.967,44.162,121.267,44.161z"/>
		<path fill="#FFFFFF" d="M100.557,213.258c-5.383,7.601-10.741,15.224-16.207,22.761c-0.383,0.53-1.636,0.771-2.373,0.621
			c-1.096-0.227-2.091-0.928-3.374-1.546c5.99-7.362,11.832-14.544,17.974-22.096c-3.895-0.433-7.29-0.812-11.413-1.27
			c3.712-2.917,6.868-5.414,10.042-7.888c4.723-3.682,9.566-7.216,14.143-11.072c2.082-1.754,3.647-4.12,5.556-6.337
			c-2.579,1.173-5.102,2.321-8.29,3.77c1.444,0.181,2.181,0.273,3.599,0.452c-9.798,6.898-19.183,13.504-29.056,20.454
			c1.5,0.317,2.467,0.52,3.749,0.793c-0.597,0.554-1.009,0.997-1.478,1.363c-4.988,3.887-9.979,7.763-14.976,11.631
			c-3.097,2.398-3.102,2.393-6.219-0.78c5.741-4.045,11.439-8.059,17.136-12.074c-0.059-0.268-0.113-0.53-0.17-0.799
			c-5.735,0-11.466,0-17.201,0c-0.054-0.307-0.108-0.615-0.16-0.922c13.731-6.245,27.464-12.494,41.196-18.743
			c-0.042-0.135-0.085-0.274-0.131-0.413c-0.515-0.024-1.029-0.053-1.544-0.077c-0.041-0.144-0.079-0.281-0.121-0.422
			c4.146-1.69,8.291-3.38,12.437-5.073c-0.052-0.174-0.104-0.349-0.156-0.524c-22.808,5.027-45.614,10.052-68.643,15.129
			c-0.51-1.393-0.979-2.681-1.594-4.368c22.508-3.855,44.73-7.662,66.953-11.471c0.005-0.136,0.012-0.271,0.021-0.407
			c-0.491-0.079-0.988-0.245-1.474-0.226c-21.505,0.99-43.015,1.949-64.514,3.06c-3.342,0.175-2.51-1.872-2.677-3.874
			c53.38,0,106.646,0,160.087,0c0,1.157,0,2.279,0,3.861c-22.845-1.04-45.608-2.071-68.372-3.107
			c-0.03,0.229-0.059,0.462-0.086,0.691c22.163,3.8,44.329,7.597,66.794,11.448c-0.448,1.526-0.827,2.827-1.29,4.407
			c-23.014-5.069-45.848-10.104-68.679-15.133c-0.06,0.171-0.12,0.342-0.178,0.512c4.841,1.978,9.684,3.952,15.106,6.164
			c-1.271,0.124-1.931,0.187-2.591,0.252c-0.041,0.142-0.085,0.277-0.127,0.416c13.337,6.056,26.676,12.111,40.012,18.165
			c0.146-0.13,0.292-0.259,0.439-0.389c-0.64-1.26-1.28-2.521-2.12-4.177c4.277,1.698,8.242,3.27,12.204,4.84
			c-1.491,3.828-1.651,3.896-5.167,2.333c-1.257-0.56-2.523-1.096-4.123-1.79c0.693,4.761-0.191,8.646-3.394,12.082
			c-15.311-10.726-30.535-21.387-46.301-32.425c1.582-0.104,2.557-0.168,4.279-0.28c-3.551-1.631-6.442-2.958-9.332-4.286
			c-0.095,0.134-0.189,0.271-0.284,0.404c0.678,0.515,1.533,0.905,1.994,1.568c0.635,0.918,3.342,0.59,1.86,2.908
			c-0.05,0.078,0.91,0.842,1.43,1.246c13.659,10.617,27.322,21.229,40.979,31.849c0.772,0.598,1.518,1.232,2.873,2.341
			c-4.51,2.554-8.57,4.925-12.736,7.091c-0.421,0.219-1.696-0.638-2.224-1.279c-10.492-12.803-20.928-25.646-31.383-38.479
			c-1.088-1.335-2.205-2.65-3.309-3.973c-0.287,0.23-0.572,0.465-0.856,0.691c10.71,15.006,21.423,30.013,32.44,45.453
			c-3.729,1.248-7.127,2.452-10.569,3.522c-4.494,1.4-4.502,1.351-6.182-3.038c-5.645-14.751-11.294-29.502-16.957-44.248
			c-0.297-0.778-0.75-1.5-1.131-2.245c-0.268,0.103-0.535,0.209-0.806,0.314c5.34,17.099,10.68,34.199,16.018,51.289
			c-5.32,1.891-9.445,0.094-11.538-4.82c-1.064-2.501-2.215-4.964-3.763-7.322c0,4.876,0,9.75,0,14.82c-1.799,0-3.739,0-6.043,0
			c0.347-7.547,0.692-15.018,1.037-22.488c0.207-0.062,0.415-0.12,0.623-0.181c1.056,1.506,2.115,3.015,3.172,4.522
			c0.18-0.04,0.361-0.081,0.541-0.122c-0.514-11.966-1.029-23.932-1.543-35.901c-0.396-0.018-0.793-0.034-1.189-0.056
			c-0.196,3.312-0.421,6.622-0.581,9.935c-0.165,3.402-0.255,6.811-0.402,10.218c-0.149,3.447-0.325,6.896-0.484,10.226
			c-2.492-1.834-4.813-3.538-7.554-5.555c-3.092,9.757-5.92,18.681-8.85,27.928c-1.545-0.296-3.046-0.583-4.846-0.926
			c3.464-9.055,6.833-17.864,10.346-27.037c-2.934-0.641-5.646-1.232-8.356-1.827c5.33-7.539,10.659-15.079,16.154-22.853
			c-1.927,0.345-17.685,19.156-19.034,22.397C98.613,213.004,99.585,213.131,100.557,213.258z M119.417,190.464
			c-0.268-0.088-0.537-0.173-0.804-0.257c-3.13,8.172-6.258,16.35-9.369,24.475c1.88,1.051,2.712,0.714,3.241-1.041
			c2.224-7.371,4.564-14.705,6.847-22.056C119.44,191.239,119.393,190.841,119.417,190.464z"/>
		<path fill="#FFFFFF" d="M192.307,170.47c-0.186-1.048-0.326-1.843-0.516-2.926c-1.798,0-3.581,0-5.762,0
			c0-2.089,0.056-3.89-0.014-5.685c-0.096-2.447-1.256-3.859-3.128-3.71c-2.308,0.188-3.01,1.758-2.966,3.844
			c0.021,0.915,0,1.829,0.003,2.745c0.005,1.4,0.338,2.829-1.989,2.79c-2.395-0.038-1.873-1.601-1.871-2.914
			c0-1.632-0.67-3.655,2.048-3.877c-1.065-1.076-2.001-2.021-3.114-3.146c-0.778,0.684-0.2,3.274-3.095,2.445
			c4.298,1.606,2.177,4.667,2.695,6.967c-3.769,1.026-4.056,0.805-4.054-2.815c0-1.081,0.055-2.17-0.054-3.239
			c-0.179-1.726-1.295-3.015-2.922-2.709c-1.088,0.202-2.411,1.438-2.802,2.516c-0.514,1.408-0.171,3.113-0.28,4.683
			c-0.043,0.62-0.295,1.755-0.479,1.761c-3.849,0.129-2.237,3.025-2.562,4.914c-0.056,0.323-0.068,0.65-0.123,1.188
			c-0.963,0-1.899,0-2.318,0c-0.878-1.092-1.55-1.926-2.223-2.76c-0.708,0.773-1.413,1.547-2.119,2.323
			c0.117,0.162,0.234,0.325,0.35,0.485c-0.87,0-1.742,0-2.782,0c0-1.922,0-3.791,0-5.789c0.694-0.146,1.364-0.291,2.226-0.475
			c-1.19-1.874-2.447-2.934-4.693-2.819c-3.401,0.178-6.825,0.186-10.224-0.002c-2.27-0.126-3.84,0.63-4.962,2.521
			c2.459,1.141,2.697,1.914,1.929,6.56c-1.904,0-3.838,0-5.705,0c-0.144-0.303-0.264-0.44-0.275-0.592
			c-0.144-1.635,0.292-4.203-0.528-4.699c-1.433-0.867-3.635-0.475-5.517-0.575c-0.895-0.045-1.794-0.008-2.943-0.008
			c-0.091,2.034-0.174,3.819-0.269,5.891c-0.978,0.046-1.905,0.086-2.942,0.135c-0.139-1.018-0.246-1.821-0.368-2.721
			c-0.909-0.157-1.781-0.309-2.937-0.512c0-1.903,0-3.773,0-5.793c-2.077,0-3.853,0-5.948,0c0,1.988,0,3.855,0,5.786
			c-1.172,0.186-2.045,0.326-2.979,0.476c-0.116,0.883-0.218,1.678-0.34,2.621c-1.938,0-3.816,0-5.85,0
			c-0.084-0.557-0.227-1.101-0.243-1.65c-0.11-4.304-0.1-4.312-4.248-5.688c-1.404-0.466-2.822-0.892-4.421-1.394
			c-0.248,0.928-0.451,1.675-0.725,2.692c-0.95-0.457-1.823-0.879-2.7-1.299c-0.892-0.425-1.784-0.841-2.845-1.344
			c-0.185,0.874-0.331,1.563-0.557,2.618c-1.897-0.899-3.71-1.754-5.763-2.724c-0.17,1.075-0.293,1.849-0.411,2.567
			c-0.24,0.117-0.382,0.247-0.534,0.258c-5.475,0.401-5.481,0.401-5.911-5.007c-0.302-3.812-0.519-7.634-0.946-11.433
			c-0.079-0.702-0.976-1.312-1.496-1.963c-0.543,0.653-1.479,1.26-1.568,1.971c-0.585,4.7-0.986,9.425-1.455,14.139
			c-0.064,0.641-0.169,1.277-0.3,2.26c-1.983-0.916-3.753-1.731-5.771-2.662c-0.19,0.875-0.353,1.627-0.583,2.689
			c-2.782,0-5.646,0-8.772,0c-0.104,2.133-0.198,3.986-0.295,5.968c-3.089,0-6.027,0-9.26,0c0-5.542,0.289-10.944-0.095-16.299
			c-0.285-3.978,0.961-6.425,4.406-8.452c5.081-2.986,9.888-6.44,14.763-9.764c4.733-3.227,9.107-2.735,13.855,0.347
			c15.486,10.053,32.198,17.357,50.439,20.613c19.46,3.476,37.542-0.341,53.943-11.481c5.226-3.55,10.607-6.141,17.169-5.433
			c5.953,0.639,6.18,0.778,6.18,6.596c0,5.906-0.045,11.811,0.032,17.713c0.021,1.556-0.406,2.221-2.042,2.335
			C197.289,169.703,194.844,170.138,192.307,170.47z"/>
		<path fill="#FFFFFF" d="M286.777,232.506c0,12.515,0,24.267,0,36.221c-3.069,0-6.085,0-9.413,0c0-0.9,0-1.707,0-2.518
			c-0.002-15.382,0.046-30.766-0.056-46.15c-0.014-2.247,0.731-2.521,2.797-2.809c5.592-0.786,8.764,1.321,11.514,6.316
			c5.283,9.601,11.411,18.737,17.195,28.063c0.333,0.543,0.717,1.051,1.45,2.117c0-4.038,0.009-7.469-0.002-10.902
			c-0.025-7.729-0.022-15.464-0.124-23.193c-0.022-1.68,0.394-2.434,2.216-2.326c2.296,0.138,4.607,0.035,7.051,0.035
			c0,17.295,0,34.287,0,51.548c-3.122,0-6.104,0.121-9.065-0.085c-0.739-0.05-1.593-1.047-2.07-1.809
			c-6.739-10.787-13.42-21.609-20.12-32.422C287.847,234.102,287.519,233.634,286.777,232.506z"/>
		<path fill="#FFFFFF" d="M698.859,251.892c2.676,0,5.395-0.066,8.103,0.065c0.48,0.021,1.139,0.812,1.344,1.381
			c2.861,7.925,14.529,11.292,21.188,6.076c3.812-2.985,3.439-7.916-1.089-9.78c-3.964-1.635-8.255-2.472-12.374-3.761
			c-2.921-0.919-5.872-1.812-8.67-3.036c-8.946-3.918-8.776-16.688-2.097-21.96c7.561-5.974,22.813-6.012,30.185,0.24
			c3.328,2.824,5.062,6.506,5.234,11.346c-2.975,0-5.92,0.03-8.861-0.045c-0.322-0.007-0.821-0.579-0.911-0.965
			c-1.355-5.793-5.872-6.856-10.738-6.805c-2.396,0.023-4.88,0.884-7.137,1.817c-1.964,0.811-2.793,2.682-2.709,4.917
			c0.083,2.163,1.312,3.469,3.147,4.043c4.036,1.252,8.157,2.234,12.207,3.438c2.935,0.875,5.878,1.78,8.713,2.942
			c9.767,3.998,9.224,17.034,3.396,22.427c-4.863,4.501-10.812,5.861-17.062,5.632c-4.004-0.149-8.135-0.902-11.897-2.247
			C702.286,265.275,698.301,258.633,698.859,251.892z"/>
		<path fill="#FFFFFF" d="M277.364,131.375c3.483,0,6.612,0,10.136,0c0,1.169-0.002,2.213,0,3.259
			c0.048,10.055-0.209,20.125,0.248,30.16c0.406,8.924,8.754,13.211,16.8,9.094c3.071-1.573,4.302-4.393,4.555-7.555
			c0.351-4.38,0.438-8.789,0.481-13.188c0.073-7.137,0.019-14.276,0.019-21.656c3.325,0,6.488,0,9.627,0
			c0.108,0.205,0.252,0.348,0.252,0.492c-0.074,11.798,0.284,23.618-0.38,35.382c-0.565,10.028-6.121,15.118-16.088,16.046
			c-3.525,0.327-7.15,0.279-10.664-0.14c-8.4-1.01-13.673-6.289-14.384-14.989c-0.618-7.52-0.473-15.104-0.592-22.659
			C277.304,140.979,277.364,136.335,277.364,131.375z"/>
		<path fill="#FFFFFF" d="M578.153,147.844c0-5.688,0-10.907,0-16.362c3.219,0,6.315,0,9.593,0c0,17.02,0,34.002,0,51.162
			c-3.108,0-6.121,0-9.266,0c-0.105-1.147-0.197-2.195-0.307-3.429c-0.389,0.18-0.696,0.255-0.915,0.435
			c-9.537,7.987-21.271,4.139-24.114-7.994c-1.414-6.034-1.266-12.063,1.264-17.836c3.918-8.927,13.69-11.987,22.078-6.997
			C576.899,147.073,577.307,147.327,578.153,147.844z M578.105,163.258c0-2.162,0.05-4.325-0.025-6.483
			c-0.028-0.696-0.199-1.54-0.628-2.047c-4.05-4.821-12.031-3.513-14.005,2.379c-1.596,4.768-1.542,9.687-0.068,14.482
			c1.089,3.554,4.038,5.291,7.472,4.796c4.067-0.591,7.257-4.276,7.257-8.385C578.107,166.422,578.107,164.84,578.105,163.258z"/>
		<path fill="#FFFFFF" d="M672.655,182.662c-3.091,0-6.05,0-9.271,0c-0.109-1.089-0.22-2.202-0.365-3.648
			c-0.825,0.658-1.443,1.154-2.063,1.646c-7.578,5.981-18.405,3.232-21.879-5.749c-2.707-7.008-2.747-14.185,0.264-21.142
			c3.866-8.931,13.739-11.938,22.082-6.904c0.404,0.246,0.813,0.483,1.545,0.917c0-5.597,0-10.858,0-16.328c3.336,0,6.433,0,9.69,0
			C672.655,148.531,672.655,165.519,672.655,182.662z M662.978,163.372c0-2.162,0.044-4.325-0.024-6.483
			c-0.021-0.704-0.115-1.635-0.557-2.062c-2.408-2.311-5.321-3.381-8.671-2.83c-2.861,0.471-4.519,2.425-5.367,5.013
			c-1.569,4.788-1.596,9.689-0.132,14.479c1.346,4.4,5.499,6.257,9.519,4.249c3.131-1.565,5.767-3.699,5.262-7.878
			C662.83,166.385,662.978,164.869,662.978,163.372z"/>
		<path fill="#FFFFFF" d="M619.088,233.942c0-5.078,0.063-9.722-0.036-14.363c-0.035-1.75,0.534-2.347,2.277-2.255
			c2.391,0.124,4.795,0.028,7.397,0.028c0,17.184,0,34.162,0,51.354c-3.009,0-6.027,0-9.24,0c-0.102-1.027-0.201-2.074-0.32-3.305
			c-0.381,0.164-0.687,0.224-0.897,0.396c-9.742,8.008-21.389,4.09-24.18-8.232c-1.408-6.22-1.087-12.355,1.597-18.276
			c4.48-9.875,15.888-10.174,21.77-6.341C617.855,233.213,618.272,233.448,619.088,233.942z M619.09,249.413
			c0-2.164,0.046-4.327-0.029-6.486c-0.022-0.696-0.158-1.622-0.614-2.036c-2.453-2.236-5.346-3.344-8.708-2.73
			c-3.094,0.566-4.803,2.774-5.413,5.562c-0.616,2.807-0.875,5.75-0.806,8.622c0.048,2.186,0.562,4.476,1.39,6.507
			c1.234,3.032,4.289,4.314,7.413,3.59c3.506-0.812,6.735-4.16,6.768-7.037C619.105,253.409,619.09,251.413,619.09,249.413z"/>
		<path fill="#FFFFFF" d="M136.935,153.499c-3.191-0.416-6.454-0.549-9.558-1.321c-3.398-0.85-4.506-3.062-3.63-6.476
			c0.428-1.667,1.056-3.387,2.023-4.787c5.141-7.44,10.25-14.912,15.708-22.116c3.25-4.29,6.936-4.305,10.004,0.117
			c4.387,6.323,8.49,12.893,12.092,19.688c2.837,5.348,1.403,7.974-4.222,10.17C152.158,151.585,144.699,153.007,136.935,153.499z"
			/>
		<path fill="#FFFFFF" d="M596.671,156.206c0.191-4.248,1.814-7.517,5.371-9.162c7.709-3.567,15.612-3.555,23.354,0.022
			c2.85,1.316,4.517,3.988,4.586,6.991c0.211,9.447,0.078,18.901,0.078,28.555c-2.911,0-6.008,0-9.212,0
			c-0.114-0.766-0.224-1.484-0.391-2.61c-0.802,0.475-1.45,0.884-2.12,1.249c-4.904,2.696-10.079,3.209-15.428,1.726
			c-4.427-1.23-7.198-4.141-7.73-8.762c-0.551-4.788,1.122-8.682,5.421-11.17c4.385-2.533,9.264-3.021,14.188-3.229
			c1.809-0.076,3.627-0.011,5.374-0.011c1.429-5.073-1.054-8.847-5.916-9.042c-3.663-0.144-7.294,0.045-8.701,4.488
			c-0.128,0.405-0.802,0.893-1.234,0.907C601.837,156.253,599.36,156.206,596.671,156.206z M616.4,165.748
			c-0.026-0.124-0.056-0.251-0.084-0.379c-2.647,0.567-5.369,0.909-7.916,1.774c-2.322,0.79-3.399,2.818-3.289,5.312
			c0.091,2.119,1.168,3.608,3.191,4.286c3.558,1.188,6.793,0.306,9.964-1.489c2.854-1.613,2.243-4.243,2.431-6.762
			c0.161-2.23-0.654-3.06-2.81-2.753C617.399,165.807,616.895,165.748,616.4,165.748z"/>
		<path fill="#FFFFFF" d="M337.236,242.334c-2.141,0-4.375,0.011-6.607-0.008c-0.566-0.008-1.133-0.104-1.884-0.175
			c0.269-4.036,1.814-7.312,5.404-8.973c7.632-3.527,15.454-3.529,23.126-0.062c3.352,1.511,4.762,4.613,4.942,8.115
			c0.255,4.977,0.267,9.963,0.329,14.949c0.046,3.575-0.043,7.15,0.035,10.726c0.031,1.491-0.443,2.096-1.986,2.038
			c-2.481-0.093-4.969-0.022-7.55-0.022c-0.207-0.931-0.378-1.702-0.611-2.752c-4.877,3.344-10.139,4.373-15.758,3.396
			c-7.148-1.24-10.893-7.015-9.096-13.901c0.862-3.292,3.005-5.497,5.98-6.947c4.997-2.431,10.369-2.821,15.809-2.799
			c3.593,0.015,3.593,0,3.195-3.592c-0.331-2.983-2.045-4.79-5.05-5.269c-0.737-0.117-1.486-0.187-2.229-0.187
			C340.713,236.865,338.994,238.006,337.236,242.334z M352.719,256.003c0-0.913,0.125-1.85-0.047-2.727
			c-0.102-0.504-0.728-1.333-1.047-1.305c-3.834,0.386-7.81,0.412-11.438,1.532c-3.371,1.045-4.149,6.126-1.589,8.279
			c2.943,2.477,6.36,1.97,9.645,0.699C351.783,261.113,352.714,259.632,352.719,256.003z"/>
		<path fill="#FFFFFF" d="M521.47,242.185c-2.903,0-5.616,0-8.55,0c0.312-4.082,1.837-7.369,5.441-9.021
			c7.637-3.495,15.444-3.5,23.123-0.048c2.861,1.283,4.358,3.858,4.747,6.898c0.352,2.708,0.467,5.459,0.499,8.194
			c0.065,6.148-0.032,12.301,0.05,18.45c0.023,1.719-0.473,2.385-2.245,2.293c-2.395-0.122-4.802-0.03-7.29-0.03
			c-0.215-0.927-0.393-1.694-0.64-2.766c-4.465,3.166-9.327,4.163-14.52,3.603c-6.065-0.653-10.021-4.174-10.682-9.402
			c-0.697-5.537,2.057-9.981,7.709-12.253c4.793-1.928,9.846-2.339,14.936-2.141c2.243,0.089,3.127-0.413,2.798-2.89
			c-0.534-4.041-2.071-5.78-6.121-6.168C525.765,236.423,523.278,237.828,521.47,242.185z M532.77,251.534
			c-2.58,0.511-5.225,0.807-7.723,1.587c-2.658,0.828-3.981,3.276-3.637,5.822c0.337,2.469,1.856,3.99,4.707,4.303
			c1.538,0.17,3.211,0.207,4.662-0.23c3.443-1.054,6.644-2.399,6.215-7.258C536.613,251.402,537.411,251.931,532.77,251.534z"/>
		<path fill="#FFFFFF" d="M772.959,245.92c0.188-3.37,0.149-6.36-2.877-8.206c-2.471-1.505-8.125-1.036-10.257,0.727
			c-0.316,0.268-0.753,0.561-0.829,0.908c-0.802,3.646-3.615,3.03-6.175,2.988c-1.148-0.021-2.301-0.004-3.428-0.004
			c-0.396-4.566,2.315-8.563,7.25-10.205c6.151-2.05,12.456-1.99,18.641-0.134c4.285,1.288,6.795,4.344,7.3,8.867
			c0.191,1.731,0.307,3.481,0.312,5.22c0.034,7.463,0.017,14.933,0.017,22.618c-3.314,0-6.409,0-9.619,0
			c-0.136-0.762-0.276-1.529-0.471-2.613c-4.588,3.294-9.534,4.287-14.806,3.641c-5.958-0.731-9.784-4.207-10.46-9.351
			c-0.722-5.501,1.947-10.262,7.726-12.169c3.954-1.309,8.249-1.643,12.418-2.25C769.389,245.717,771.137,245.92,772.959,245.92z
			 M769.113,251.881c-0.022-0.121-0.048-0.243-0.074-0.364c-2.659,0.528-5.383,0.859-7.967,1.647
			c-2.411,0.729-3.695,3.026-3.535,5.429c0.157,2.344,1.415,3.91,3.652,4.478c3.483,0.885,6.657,0.088,9.712-1.818
			c2.804-1.753,2.016-4.398,2.22-6.883c0.163-1.981-0.549-2.783-2.521-2.498C770.118,251.943,769.611,251.881,769.113,251.881z"/>
		<path fill="#FFFFFF" d="M436.916,166.328c-0.561,7.505,4.627,12.208,11.308,10.684c2.24-0.513,3.898-1.709,4.967-3.792
			c0.335-0.657,1.013-1.565,1.586-1.604c2.613-0.17,5.247-0.074,8.164-0.074c-0.99,5.32-3.823,8.715-8.309,10.534
			c-5.938,2.406-12.067,2.454-17.978-0.071c-6.908-2.953-9.653-8.856-10.083-15.937c-0.168-2.783,0.058-5.696,0.708-8.399
			c2.331-9.696,10.998-14.608,21.896-12.799c11.468,1.904,14.814,11.188,14.613,20.03c-0.041,1.735-1.298,1.421-2.322,1.422
			c-7.233,0.021-14.471,0.01-21.703,0.01C438.861,166.328,437.962,166.328,436.916,166.328z M437.022,160.107
			c5.484,0,10.972,0,16.464,0c-0.104-5.761-3.581-9.519-8.507-9.369C440.276,150.879,436.871,154.817,437.022,160.107z"/>
		<path fill="#FFFFFF" d="M671.868,257.684c-0.433,3.627-2.036,6.172-4.429,8.214c-6.996,5.975-20.721,5.223-27.069-1.427
			c-9.229-9.654-5.11-29.033,6.997-32.771c4.479-1.382,9.05-1.387,13.522-0.053c9.773,2.913,12.081,11.855,11.915,19.424
			c-0.038,1.764-1.359,1.372-2.354,1.376c-7.397,0.03-14.801,0.114-22.202-0.025c-2.383-0.044-2.851,0.708-2.374,2.889
			c1.329,6.122,5.273,8.977,11.134,7.904c2.378-0.436,4.035-1.747,5.212-3.849c0.385-0.683,1.172-1.553,1.832-1.605
			C666.517,257.567,669.005,257.684,671.868,257.684z M662.455,246.217c0.189-5.201-3.19-9.148-7.924-9.359
			c-4.804-0.213-8.358,3.589-8.605,9.359C651.438,246.217,656.949,246.217,662.455,246.217z"/>
		<path fill="#FFFFFF" d="M445.875,230.79c11.373,0.025,18.315,6.963,18.494,18.334c0.08,5.189-0.527,10.217-3.891,14.365
			c-5.318,6.564-12.538,7.364-20.167,5.755c-7.312-1.546-11.545-6.502-12.69-13.705c-0.576-3.62-0.551-7.51,0.099-11.115
			C429.313,235.575,436.021,230.769,445.875,230.79z M454.788,250.192c-0.64-2.578-1.004-5.325-2.021-7.803
			c-1.237-3.016-3.823-4.448-7.166-4.382c-3.218,0.065-5.691,1.479-6.947,4.387c-2.237,5.182-2.267,10.52-0.038,15.715
			c1.34,3.119,3.991,4.572,7.387,4.489c3.315-0.08,5.802-1.679,6.946-4.744C453.831,255.49,454.159,252.914,454.788,250.192z"/>
		<path fill="#FFFFFF" d="M339.014,149.568c3.761-3.283,7.489-5.14,12.108-4.976c6.708,0.239,11.25,3.604,11.61,10.229
			c0.499,9.177,0.124,18.405,0.124,27.802c-3.047,0-6.144,0-9.544,0c0-1.062,0.005-2.041,0-3.016
			c-0.052-7.394,0.036-14.794-0.217-22.18c-0.141-4.14-2.135-5.538-6.249-5.089c-4.793,0.522-7.79,3.876-7.79,8.71
			c0.002,7.132,0,14.262,0,21.576c-3.328,0-6.424,0-9.679,0c0-12.364,0-24.613,0-37.267c2.811,0,5.518-0.063,8.217,0.065
			c0.449,0.022,1.034,0.836,1.236,1.397C339.067,147.484,338.95,148.271,339.014,149.568z"/>
		<path fill="#FFFFFF" d="M801.504,235.681c0.994-0.79,1.619-1.302,2.257-1.792c4.46-3.414,9.425-3.951,14.629-2.289
			c3.52,1.122,6.147,3.717,6.395,7.304c0.68,9.892,0.837,19.821,1.206,29.89c-3.732,0-6.771,0-10.171,0c0-1.015,0-1.898,0-2.781
			c0-6.814,0.054-13.626-0.029-20.439c-0.034-2.453,0.177-5.284-2.53-6.581c-2.768-1.324-5.527-0.559-8.05,1.015
			c-2.46,1.538-3.862,3.431-3.719,6.683c0.285,6.385,0.084,12.791,0.084,19.188c0,0.898,0,1.797,0,2.873c-3.354,0-6.45,0-9.69,0
			c0-12.401,0-24.662,0-37.102c3.113,0,6.142,0,9.355,0C801.324,232.897,801.397,234.036,801.504,235.681z"/>
		<path fill="#FFFFFF" d="M481.048,235.643c0.934-0.731,1.56-1.224,2.188-1.71c4.444-3.443,9.427-4.03,14.621-2.355
			c4.569,1.474,6.763,5.138,6.988,9.681c0.34,6.801,0.252,13.617,0.331,20.427c0.024,2.308,0.005,4.613,0.005,7.21
			c-3.083,0-5.89,0.084-8.678-0.091c-0.42-0.027-1.083-1.277-1.092-1.964c-0.086-6.812-0.058-13.626-0.062-20.441
			c0-0.662,0.015-1.33-0.041-1.99c-0.43-5.463-3.94-7.581-8.96-5.252c-3.311,1.537-5.577,3.617-5.345,7.964
			c0.375,7.112,0.101,14.26,0.101,21.601c-3.306,0-6.399,0-9.658,0c0-12.315,0-24.573,0-37.227c2.822,0,5.613-0.053,8.398,0.062
			c0.369,0.015,0.878,0.821,1.019,1.342C481.067,233.638,480.986,234.461,481.048,235.643z"/>
		<path fill="#FFFFFF" d="M895.896,231.494c2.682,0,5.491-0.102,8.276,0.105c0.433,0.031,1.077,1.455,1.089,2.236
			c0.088,6.65,0.052,13.296,0.052,19.946c0.004,0.745-0.02,1.499,0.028,2.242c0.375,5.487,3.519,7.623,8.636,5.546
			c3.381-1.373,5.979-2.938,5.702-7.891c-0.349-6.376-0.088-12.789-0.088-19.189c0-0.893,0-1.786,0-2.85c3.302,0,6.328,0,9.515,0
			c0,12.369,0,24.63,0,37.086c-3.059,0-6.063,0-9.197,0c-0.106-1.18-0.204-2.232-0.333-3.674c-0.782,0.562-1.364,0.949-1.902,1.382
			c-3.409,2.745-7.256,3.878-11.628,3.336c-5.699-0.71-9.688-3.703-10.002-9.363C895.501,250.905,895.896,241.353,895.896,231.494z"
			/>
		<path fill="#FFFFFF" d="M527.659,155.476c-2.63,0-5.11,0.075-7.581-0.062c-0.498-0.026-1.236-0.762-1.382-1.305
			c-1.212-4.436-9.623-4.016-11.674-1.635c-1.467,1.711-1.093,4.326,1.003,5.245c1.964,0.858,4.102,1.321,6.165,1.943
			c2.701,0.807,5.477,1.425,8.101,2.438c3.713,1.432,6.287,3.903,6.59,8.229c0.306,4.408-0.804,8.313-4.743,10.514
			c-7.564,4.225-15.466,4.093-23.112,0.229c-3.497-1.771-4.863-5.226-4.987-9.522c2.76,0,5.391-0.072,8.003,0.073
			c0.446,0.024,1.062,0.955,1.216,1.561c0.663,2.62,2.462,3.919,4.939,4.277c2.995,0.431,6.069,0.64,8.393-1.858
			c1.93-2.072,1.276-5.049-1.468-6.06c-3.106-1.145-6.362-1.864-9.536-2.835c-1.665-0.505-3.323-1.059-4.919-1.748
			c-3.724-1.599-5.672-4.493-5.821-8.533c-0.153-4.091,1.458-7.482,5.056-9.351c7.105-3.687,14.417-3.501,21.525,0.091
			C526.333,148.643,527.709,151.661,527.659,155.476z"/>
		<path fill="#FFFFFF" d="M955.032,257.688c2.761,0,5.243-0.092,7.698,0.069c0.561,0.037,1.315,0.863,1.545,1.483
			c1.683,4.63,9.664,6.349,13.124,2.776c2.075-2.154,1.641-5.236-1.152-6.283c-3.183-1.187-6.526-1.936-9.78-2.927
			c-1.581-0.48-3.172-0.989-4.686-1.647c-3.7-1.599-5.711-4.438-5.88-8.502c-0.17-4.095,1.382-7.501,4.969-9.393
			c7.092-3.74,14.418-3.585,21.512,0.027c3.091,1.577,4.404,4.532,4.498,8.356c-2.775,0-5.331,0.074-7.876-0.065
			c-0.475-0.027-1.132-0.854-1.315-1.436c-1.338-4.333-9.675-3.931-11.702-1.441c-1.455,1.78-1.017,4.24,1.166,5.198
			c1.883,0.825,3.942,1.258,5.924,1.856c2.857,0.871,5.778,1.572,8.564,2.636c3.687,1.411,6.018,4.011,6.286,8.178
			c0.275,4.292-0.953,7.882-4.602,10.396c-5.623,3.871-17.689,4.012-23.396,0.24C956.715,265.089,955.216,261.996,955.032,257.688z"
			/>
		<path fill="#FFFFFF" d="M865.485,260.256c8.005,0,15.556,0,23.304,0c0,2.867,0,5.559,0,8.471
			c-0.722,0.064-1.434,0.188-2.145,0.188c-9.646,0.015-19.291,0.003-28.938,0.019c-1.309,0.003-2.4,0.118-2.395-1.85
			c0.065-16.131,0.042-32.26,0.05-48.39c0-0.317,0.105-0.637,0.228-1.322c2.879,0,5.762-0.112,8.619,0.109
			c0.482,0.038,1.216,1.521,1.225,2.341c0.073,12.471,0.052,24.943,0.052,37.417C865.485,258.132,865.485,259.027,865.485,260.256z"
			/>
		<path fill="#FFFFFF" d="M404.127,243.782c-2.88,0-5.438,0.075-7.988-0.063c-0.525-0.028-1.238-0.762-1.473-1.329
			c-1.129-2.771-3.124-4.214-6.082-4.364c-3.166-0.161-5.882,0.88-7.323,3.759c-2.764,5.525-2.773,11.256-0.084,16.796
			c1.425,2.936,4.149,4.245,7.441,4.008c2.994-0.219,5.146-1.625,6.161-4.611c0.182-0.534,0.975-1.188,1.519-1.219
			c2.471-0.129,4.949-0.056,7.758-0.056c-0.594,5.039-2.734,8.733-6.955,11.045c-12.873,7.048-27.259-1.297-27.761-16.126
			c-0.081-2.388,0.1-4.848,0.6-7.178c2.145-10.023,11.111-15.424,21.891-13.432c5.683,1.049,9.822,3.896,11.663,9.562
			C403.79,241.486,403.875,242.464,404.127,243.782z"/>
		<path fill="#FFFFFF" d="M387.019,145.36c3.192,0,6.013-0.116,8.813,0.086c0.662,0.047,1.582,1.051,1.816,1.795
			c2.32,7.284,4.515,14.607,6.747,21.915c0.26,0.852,0.524,1.704,0.947,3.072c0.417-1.027,0.695-1.584,0.873-2.165
			c2.296-7.555,4.618-15.099,6.828-22.673c0.455-1.553,1.149-2.158,2.777-2.075c2.477,0.126,4.962,0.033,7.753,0.033
			c-0.207,0.89-0.289,1.511-0.495,2.088c-4.006,11.099-8.06,22.183-12.002,33.303c-0.574,1.614-1.339,2.233-3.044,2.108
			c-2.399-0.181-5.446,0.748-7.05-0.411c-1.697-1.226-2.092-4.318-2.945-6.644c-3.383-9.201-6.723-18.421-10.075-27.633
			C387.683,147.394,387.439,146.614,387.019,145.36z"/>
		<path fill="#FFFFFF" d="M565.385,268.766c-3.328,0-6.362,0-9.593,0c0-17.021,0-34.002,0-51.391c2.771,0,5.573-0.114,8.345,0.11
			c0.475,0.039,1.194,1.529,1.2,2.352c0.066,14.538,0.048,29.077,0.048,43.615C565.385,265.174,565.385,266.893,565.385,268.766z"/>
		<path fill="#FFFFFF" d="M102.15,80.524c6.782,0.181,12.255,5.929,12.066,12.667c-0.192,6.867-5.802,12.29-12.58,12.165
			c-6.896-0.13-12.418-5.937-12.178-12.804C89.699,85.703,95.357,80.341,102.15,80.524z"/>
		<path fill="#FFFFFF" d="M493.636,153.223c-1.908,0-3.473-0.052-5.033,0.008c-5.073,0.195-8.101,3.304-8.101,8.267
			c0,6.973,0,13.946,0,21.119c-3.292,0-6.388,0-9.635,0c0-12.366,0-24.625,0-37.242c2.814,0,5.527-0.064,8.232,0.066
			c0.436,0.02,1.064,0.864,1.186,1.417c0.2,0.91,0.055,1.896,0.055,2.851c0.287,0.163,0.577,0.326,0.864,0.493
			c0.495-0.734,0.846-1.667,1.518-2.158c1.524-1.111,3.101-2.304,4.849-2.927c4.818-1.722,6.06-0.779,6.067,4.165
			C493.638,150.591,493.636,151.896,493.636,153.223z"/>
		<path fill="#FFFFFF" d="M545.757,182.658c-3.327,0-6.366,0-9.618,0c0-12.326,0-24.645,0-37.293c2.8,0,5.511,0,8.225,0
			c1.765-0.001,1.378,1.327,1.38,2.327c0.019,9.801,0.014,19.605,0.014,29.407C545.757,178.898,545.757,180.704,545.757,182.658z"/>
		<path fill="#FFFFFF" d="M419.74,268.914c-2.865,0-5.587,0.076-8.297-0.069c-0.487-0.023-1.323-0.969-1.327-1.495
			c-0.075-11.465-0.07-22.93-0.003-34.396c0.001-0.494,0.74-1.392,1.168-1.41c2.791-0.131,5.586-0.067,8.458-0.067
			C419.74,244.105,419.74,256.358,419.74,268.914z"/>
		<path fill="#FFFFFF" d="M381.794,182.731c-3.421,0-6.396,0-9.665,0c-0.059-0.845-0.155-1.631-0.155-2.417
			c-0.009-10.723,0.071-21.439-0.063-32.157c-0.032-2.399,0.778-3.065,2.977-2.829c1.313,0.14,2.67,0.14,3.984-0.001
			c2.203-0.242,3.012,0.431,2.981,2.83c-0.132,10.635-0.058,21.27-0.058,31.906C381.794,180.872,381.794,181.686,381.794,182.731z"
			/>
		<path fill="#FFFFFF" d="M938.551,268.749c0-12.415,0-24.662,0-37.098c3.196,0,6.286,0,9.519,0c0,12.428,0,24.674,0,37.098
			C944.919,268.749,941.883,268.749,938.551,268.749z"/>
		<path fill="#FFFFFF" d="M54.556,210.165c1.711,0.26,3.42,0.521,5.129,0.782c0.026,0.159,0.055,0.32,0.082,0.482
			c-2.071,0.948-4.074,2.241-6.246,2.669c-0.861,0.172-2.101-1.571-3.375-2.608c1.02-0.723,1.583-1.124,2.167-1.54
			c-3.156-2.82-3.132-5.111,0.675-6.843c5.267-2.4,10.757-4.381,16.29-6.094c9.459-2.929,19.199-4.576,29.221-5.118
			c-7.313,2.947-14.619,5.908-21.936,8.839c-7.352,2.948-14.712,5.87-22.069,8.803C54.516,209.749,54.537,209.958,54.556,210.165z"
			/>
		<path fill="#FFFFFF" d="M419.591,217.005c0.159,0.641,0.277,0.881,0.268,1.114c-0.118,2.368-0.254,4.734-0.386,7.102
			c-2.725,0.071-5.45,0.195-8.173,0.16c-0.415-0.006-0.833-0.752-1.211-1.185c-0.086-0.099-0.017-0.321-0.03-0.486
			c-0.5-6.705-0.5-6.705,6.227-6.705C417.35,217.005,418.413,217.005,419.591,217.005z"/>
		<path fill="#FFFFFF" d="M381.578,139.253c-3.346,0-6.237,0-9.577,0c0-2.511-0.045-4.957,0.054-7.396
			c0.014-0.33,0.754-0.888,1.173-0.902c2.727-0.081,5.455-0.041,8.352-0.041C381.578,133.802,381.578,136.473,381.578,139.253z"/>
		<path fill="none" d="M536.069,139.335c0-2.964,0-5.5,0-8.413c2.903,0,5.687-0.05,8.462,0.057c0.419,0.018,0.821,0.76,1.192,1.196
			c0.086,0.098,0.021,0.322,0.03,0.485c0.458,6.678,0.458,6.678-6.239,6.675C538.454,139.335,537.396,139.335,536.069,139.335z"/>
		<path fill="#FFFFFF" d="M948.173,217.026c0,2.58,0.078,4.876-0.062,7.16c-0.028,0.446-0.842,1.037-1.399,1.212
			c-0.681,0.208-1.47,0.054-2.218,0.054c-6.617,0.002-7.01-0.427-6.02-7.049c0.074-0.514,0.812-1.296,1.272-1.318
			C942.45,216.961,945.162,217.026,948.173,217.026z"/>
		<path fill="#FFFFFF" d="M148.112,192.451c11.288,2.298,22.581,4.582,31.583,12.618c-0.084,0.211-0.169,0.427-0.255,0.642
			c-10.525-4.215-21.05-8.422-31.576-12.633C147.946,192.868,148.029,192.657,148.112,192.451z"/>
		<path fill="#FFFFFF" d="M100.557,213.258c-0.972-0.127-1.943-0.252-2.957-0.386c1.348-3.241,17.106-22.054,19.033-22.399
			c-5.494,7.772-10.823,15.313-16.154,22.854L100.557,213.258z"/>
		<path fill="#FFFFFF" d="M119.417,190.464c-0.024,0.377,0.023,0.771-0.085,1.123c-2.283,7.354-4.622,14.685-6.847,22.056
			c-0.532,1.753-1.363,2.092-3.242,1.041c3.111-8.125,6.239-16.303,9.369-24.475C118.88,190.292,119.148,190.378,119.417,190.464z"
			/>
	</g>
</g>
<g>
	<path fill="#FFFFFF" d="M305.025,90.243c-1.735,0.845-5.202,1.688-9.644,1.688c-10.293,0-18.042-6.329-18.042-17.984
		c0-11.128,7.748-18.67,19.07-18.67c4.551,0,7.422,0.95,8.669,1.583l-1.139,3.745c-1.789-0.844-4.333-1.478-7.367-1.478
		c-8.56,0-14.249,5.327-14.249,14.662c0,8.702,5.146,14.292,14.031,14.292c2.872,0,5.796-0.581,7.694-1.477L305.025,90.243z"/>
	<path fill="#FFFFFF" d="M324.907,91.404l-0.379-3.217h-0.163c-1.462,2.003-4.279,3.796-8.018,3.796
		c-5.309,0-8.018-3.639-8.018-7.331c0-6.17,5.635-9.545,15.766-9.493v-0.527c0-2.109-0.596-5.907-5.96-5.907
		c-2.438,0-4.984,0.739-6.826,1.898l-1.085-3.058c2.167-1.372,5.31-2.268,8.615-2.268c8.018,0,9.968,5.326,9.968,10.442v9.545
		c0,2.214,0.108,4.377,0.434,6.118H324.907L324.907,91.404z M324.203,78.377c-5.201-0.105-11.107,0.791-11.107,5.748
		c0,3.007,2.06,4.432,4.498,4.432c3.413,0,5.58-2.111,6.338-4.272c0.163-0.475,0.271-1.001,0.271-1.477V78.377L324.203,78.377z"/>
	<path fill="#FFFFFF" d="M336.5,73.843c0-3.007-0.054-5.591-0.215-7.964h4.172l0.161,5.01h0.217c1.192-3.428,4.063-5.59,7.259-5.59
		c0.541,0,0.921,0.053,1.355,0.159v4.377c-0.488-0.106-0.976-0.158-1.625-0.158c-3.36,0-5.743,2.479-6.393,5.959
		c-0.109,0.633-0.217,1.372-0.217,2.162v13.607H336.5V73.843z"/>
	<path fill="#FFFFFF" d="M354.432,73.843c0-3.007-0.055-5.591-0.217-7.964h4.171l0.162,5.01h0.217c1.193-3.428,4.063-5.59,7.26-5.59
		c0.541,0,0.921,0.053,1.354,0.159v4.377c-0.488-0.106-0.975-0.158-1.625-0.158c-3.36,0-5.744,2.479-6.393,5.959
		c-0.109,0.633-0.218,1.372-0.218,2.162v13.607h-4.713L354.432,73.843L354.432,73.843z"/>
	<path fill="#FFFFFF" d="M374.261,79.485c0.108,6.276,4.226,8.859,8.993,8.859c3.413,0,5.47-0.579,7.259-1.317l0.812,3.322
		c-1.68,0.74-4.552,1.583-8.722,1.583c-8.072,0-12.895-5.169-12.895-12.869c0-7.699,4.66-13.764,12.299-13.764
		c8.559,0,10.834,7.33,10.834,12.024c0,0.95-0.107,1.688-0.161,2.162H374.261L374.261,79.485z M388.238,76.163
		c0.054-2.954-1.247-7.542-6.609-7.542c-4.823,0-6.935,4.324-7.314,7.542H388.238z"/>
	<path fill="#FFFFFF" d="M398.747,73.843c0-3.007-0.054-5.591-0.217-7.964h4.172l0.162,5.01h0.217c1.193-3.428,4.064-5.59,7.26-5.59
		c0.541,0,0.921,0.053,1.354,0.159v4.377c-0.487-0.106-0.975-0.158-1.625-0.158c-3.359,0-5.743,2.479-6.393,5.959
		c-0.108,0.633-0.217,1.372-0.217,2.162v13.607h-4.712V73.843z"/>
	<path fill="#FFFFFF" d="M430.71,91.404l-0.378-3.217h-0.162c-1.464,2.003-4.28,3.796-8.019,3.796c-5.31,0-8.018-3.639-8.018-7.331
		c0-6.17,5.633-9.545,15.764-9.493v-0.527c0-2.109-0.596-5.907-5.959-5.907c-2.438,0-4.984,0.739-6.827,1.898l-1.083-3.058
		c2.167-1.372,5.309-2.268,8.612-2.268c8.02,0,9.97,5.326,9.97,10.442v9.545c0,2.214,0.109,4.377,0.433,6.118H430.71L430.71,91.404z
		 M430.007,78.377c-5.202-0.105-11.106,0.791-11.106,5.748c0,3.007,2.058,4.432,4.497,4.432c3.413,0,5.58-2.111,6.339-4.272
		c0.162-0.475,0.271-1.001,0.271-1.477V78.377L430.007,78.377z"/>
	<path fill="#FFFFFF" d="M441.653,86.657c1.409,0.897,3.902,1.846,6.285,1.846c3.467,0,5.092-1.688,5.092-3.798
		c0-2.214-1.354-3.427-4.875-4.693c-4.713-1.635-6.934-4.167-6.934-7.226c0-4.114,3.413-7.488,9.047-7.488
		c2.654,0,4.984,0.738,6.447,1.582l-1.192,3.375c-1.029-0.633-2.926-1.477-5.363-1.477c-2.817,0-4.389,1.582-4.389,3.481
		c0,2.109,1.572,3.058,4.985,4.324c4.551,1.688,6.88,3.902,6.88,7.7c0,4.482-3.576,7.647-9.805,7.647
		c-2.871,0-5.526-0.687-7.367-1.741L441.653,86.657z"/>
</g>
</svg>
